<svg id="Layer_1" data-name="Layer 1" xmlns="http://www.w3.org/2000/svg" xmlns:xlink="http://www.w3.org/1999/xlink" viewBox="0 0 54.8 54.8"><defs><style>.cls-1{fill:#009385;}.cls-2{fill:url(#linear-gradient);}.cls-3{fill:url(#linear-gradient-2);}.cls-4{fill:url(#linear-gradient-3);}.cls-5{fill:#b8b8be;}.cls-6{fill:url(#linear-gradient-4);}.cls-7{fill:url(#linear-gradient-5);}.cls-8{fill:url(#linear-gradient-6);}.cls-9{fill:url(#linear-gradient-7);}.cls-10{fill:url(#linear-gradient-8);}.cls-11{fill:url(#linear-gradient-9);}.cls-12{fill:url(#linear-gradient-10);}.cls-13{fill:url(#linear-gradient-11);}.cls-14{fill:url(#linear-gradient-12);}.cls-15{fill:url(#linear-gradient-13);}.cls-16{fill:url(#linear-gradient-14);}.cls-17{fill:url(#linear-gradient-15);}.cls-18{fill:url(#linear-gradient-16);}.cls-19{fill:url(#linear-gradient-17);}.cls-20{fill:url(#linear-gradient-18);}.cls-21{fill:url(#linear-gradient-19);}.cls-22{fill:url(#linear-gradient-20);}.cls-23{fill:url(#linear-gradient-21);}.cls-24{fill:url(#linear-gradient-22);}.cls-25{fill:url(#linear-gradient-23);}.cls-26{fill:url(#linear-gradient-24);}.cls-27{fill:url(#linear-gradient-25);}.cls-28{fill:url(#linear-gradient-26);}.cls-29{fill:url(#linear-gradient-27);}.cls-30{fill:url(#linear-gradient-28);}.cls-31{fill:url(#linear-gradient-29);}.cls-32{fill:url(#linear-gradient-30);}.cls-33{fill:url(#linear-gradient-31);}</style><linearGradient id="linear-gradient" x1="368.59" y1="265.23" x2="367.97" y2="267" gradientUnits="userSpaceOnUse"><stop offset="0" stop-color="#a0c5a3"/><stop offset="0.86" stop-color="#009385"/></linearGradient><linearGradient id="linear-gradient-2" x1="369.9" y1="268.46" x2="368.45" y2="264.22" gradientUnits="userSpaceOnUse"><stop offset="0" stop-color="#009385"/><stop offset="1" stop-color="#e6edc7"/></linearGradient><linearGradient id="linear-gradient-3" x1="370.97" y1="247.92" x2="382.38" y2="287.79" gradientTransform="translate(8.34 12.84) rotate(1.99)" gradientUnits="userSpaceOnUse"><stop offset="0" stop-color="#009385"/><stop offset="1" stop-color="#005448"/></linearGradient><linearGradient id="linear-gradient-4" x1="343.28" y1="286.4" x2="349.87" y2="284.28" gradientTransform="matrix(1, 0, 0, 1, 0, 0)" xlink:href="#linear-gradient-3"/><linearGradient id="linear-gradient-5" x1="378.85" y1="277.54" x2="370" y2="280.83" gradientTransform="matrix(1, 0, 0, 1, 0, 0)" xlink:href="#linear-gradient-3"/><linearGradient id="linear-gradient-6" x1="385.83" y1="279.97" x2="378.2" y2="279.73" gradientTransform="matrix(1, 0, 0, 1, 0, 0)" xlink:href="#linear-gradient-3"/><linearGradient id="linear-gradient-7" x1="362.3" y1="280.48" x2="356.31" y2="281.74" gradientTransform="matrix(1, 0, 0, 1, 0, 0)" xlink:href="#linear-gradient-3"/><linearGradient id="linear-gradient-8" x1="374.02" y1="279.92" x2="358.26" y2="281.94" gradientTransform="matrix(1, 0, 0, 1, 0, 0)" xlink:href="#linear-gradient-3"/><linearGradient id="linear-gradient-9" x1="343.09" y1="288.62" x2="358.07" y2="300.1" gradientTransform="matrix(1, 0, 0, 1, 0, 0)" xlink:href="#linear-gradient-3"/><linearGradient id="linear-gradient-10" x1="14.75" y1="33.05" x2="8.46" y2="27.97" gradientTransform="matrix(1, 0, 0, 1, 0, 0)" xlink:href="#linear-gradient-3"/><linearGradient id="linear-gradient-11" x1="357.96" y1="301.59" x2="347.95" y2="292.23" gradientTransform="matrix(1, 0, 0, 1, 0, 0)" xlink:href="#linear-gradient-3"/><linearGradient id="linear-gradient-12" x1="362.89" y1="220.97" x2="356.34" y2="216.03" gradientTransform="translate(-308.87 -218.8) rotate(6.67)" xlink:href="#linear-gradient-3"/><linearGradient id="linear-gradient-13" x1="372.1" y1="314.17" x2="357.22" y2="300.4" gradientTransform="matrix(1, 0, 0, 1, 0, 0)" xlink:href="#linear-gradient-3"/><linearGradient id="linear-gradient-14" x1="374.84" y1="301.5" x2="370.67" y2="289.18" gradientTransform="matrix(1, 0, 0, 1, 0, 0)" xlink:href="#linear-gradient-3"/><linearGradient id="linear-gradient-15" x1="376.08" y1="313.45" x2="371.53" y2="306.68" gradientUnits="userSpaceOnUse"><stop offset="0" stop-color="#a0c5a3"/><stop offset="1" stop-color="#009385"/></linearGradient><linearGradient id="linear-gradient-16" x1="384.09" y1="326.74" x2="365.77" y2="280.02" gradientTransform="matrix(1, 0, 0, 1, 0, 0)" xlink:href="#linear-gradient-3"/><linearGradient id="linear-gradient-17" x1="379.67" y1="285.12" x2="306.55" y2="332.15" xlink:href="#linear-gradient-15"/><linearGradient id="linear-gradient-18" x1="386.47" y1="279.95" x2="377.41" y2="286" gradientUnits="userSpaceOnUse"><stop offset="0" stop-color="#e6edc7"/><stop offset="1" stop-color="#009385"/></linearGradient><linearGradient id="linear-gradient-19" x1="357.67" y1="302.81" x2="333.85" y2="320.77" gradientTransform="matrix(1, 0, 0, 1, 0, 0)" xlink:href="#linear-gradient-3"/><linearGradient id="linear-gradient-20" x1="403.29" y1="272.9" x2="327.05" y2="326.27" gradientTransform="matrix(1, 0, 0, 1, 0, 0)" xlink:href="#linear-gradient-3"/><linearGradient id="linear-gradient-21" x1="365.75" y1="295.59" x2="350.61" y2="304.75" xlink:href="#linear-gradient-2"/><linearGradient id="linear-gradient-22" x1="363.44" y1="265.96" x2="373.42" y2="298.85" xlink:href="#linear-gradient-15"/><linearGradient id="linear-gradient-23" x1="355.9" y1="282.09" x2="370.88" y2="262.44" gradientTransform="matrix(1, 0, 0, 1, 0, 0)" xlink:href="#linear-gradient-3"/><linearGradient id="linear-gradient-24" x1="340.48" y1="307.52" x2="369.14" y2="269.93" gradientTransform="matrix(1, 0, 0, 1, 0, 0)" xlink:href="#linear-gradient-3"/><linearGradient id="linear-gradient-25" x1="345.06" y1="285.23" x2="341.52" y2="286.95" xlink:href="#linear-gradient-2"/><linearGradient id="linear-gradient-26" x1="342.07" y1="288.02" x2="364.38" y2="288.02" xlink:href="#linear-gradient-18"/><linearGradient id="linear-gradient-27" x1="359.63" y1="274.91" x2="344.62" y2="301.03" gradientUnits="userSpaceOnUse"><stop offset="0" stop-color="#e6f0e4"/><stop offset="1" stop-color="#e6edc7"/></linearGradient><linearGradient id="linear-gradient-28" x1="369.11" y1="286.92" x2="362.76" y2="259.15" xlink:href="#linear-gradient-27"/><linearGradient id="linear-gradient-29" x1="392.09" y1="276.74" x2="390.41" y2="278.76" gradientUnits="userSpaceOnUse"><stop offset="0" stop-color="#a0c5a3"/><stop offset="0.14" stop-color="#7cba9c"/><stop offset="0.34" stop-color="#50ac94"/><stop offset="0.53" stop-color="#2da18d"/><stop offset="0.7" stop-color="#149989"/><stop offset="0.87" stop-color="#059586"/><stop offset="1" stop-color="#009385"/></linearGradient><linearGradient id="linear-gradient-30" x1="391.1" y1="276.75" x2="396.06" y2="281.05" gradientUnits="userSpaceOnUse"><stop offset="0" stop-color="#a0c5a3"/><stop offset="1" stop-color="#e6edc7"/></linearGradient><linearGradient id="linear-gradient-31" x1="370.12" y1="308.57" x2="376.64" y2="314.92" xlink:href="#linear-gradient-27"/></defs><title>logo-unicid</title><path class="cls-1" d="M381,311.75c-.84-2.25-1.87-5-2.74-7.91-1.64-5.4-3-10.61-3-10.64,1.06-.69,10.44-7.08,17.23-10.94.1-.06,2.1-1.18,2.29-2.57a2.68,2.68,0,0,0-.12-1.13c-.34-1-1.2-1.92-3.61-2.07a67.53,67.53,0,0,0-8.86-.15,82.38,82.38,0,0,0-10.24,1s-1.14-7-1.55-9.86a5.86,5.86,0,0,0-.5-1.73,2.28,2.28,0,0,0-1.59-1.05,2.4,2.4,0,0,0-1.9.37,7.19,7.19,0,0,0-1.19,1.42c-1.82,2.56-6.94,10.12-9.5,14.44,0,0-8,2.45-12.82,4.47-1.43.59-1.57,1.31-1.61,1.69s0,1,1.12,2c1.42,1.19,5.86,4.86,5.86,4.86-1.57,2.48-7.6,14.79-8.19,18.22a3.57,3.57,0,0,0,.56,2.94,2.83,2.83,0,0,0,2.11,1c1,0,2.43-1.07,3-1.5C350.62,311.15,360,304,360,304c3.53,3.17,11,10,14.94,13.67.46.43,1.92,1.78,3.33,1.81a3.62,3.62,0,0,0,3.71-3A10.46,10.46,0,0,0,381,311.75Zm-36.69-24.12c-.12-.09-.47-.36-.45-.72a.62.62,0,0,1,.32-.48,4,4,0,0,1,.43-.2,89.56,89.56,0,0,1,9.64-2.87c-1.31,2.28-2.19,3.71-2.81,4.78-1.41,2.47-1.4,2.57-2,3.59C349.48,291.73,345.34,288.45,344.33,287.63Zm2.28,19.81c-.13.09-.63.42-.76.48-1.07.53-1.28-.11-1.35-.37a3.24,3.24,0,0,1,.36-1.56c1-2.19,5.07-10.76,5.07-10.76s5,4.29,6.26,5.38C356.19,300.61,348.93,305.85,346.61,307.44Zm25.94-3.16c.84,2.87,1.8,5.86,2.27,7.32a1.25,1.25,0,0,1,0,1,.5.5,0,0,1-.71.14,4,4,0,0,1-.58-.42l-11.32-9.93,8.19-5.8S371.49,300.62,372.55,304.28ZM358.32,299l-7.23-6s4.34-8.15,5.7-10.22c.83-.23,7.21-1.4,10.22-1.76,0,0,.9,4.95,2.24,10.64C369.25,291.65,360.4,297.52,358.32,299Zm19.11-19c2.94-.15,6.05-.17,6.3-.17.75,0,1.36.08,1.48.4s-.18.92-.72,1.3l-3.78,2.53c-2.91,2-6.55,4.34-6.55,4.34s-1.39-6.34-1.66-8.05C372.5,280.4,374.93,280.17,377.43,280.05Zm-13.38-8.35c.06-.08.54-.69.9-.69s.49.42.53.67c.08.54.19,1.32.4,2.59.3,1.86.66,4,.66,4-2,.39-6.67,1.5-8.22,1.94C360,277.49,363.05,273,364.05,271.7Z" transform="translate(-340.04 -264.64)"/><path class="cls-2" d="M365.27,266.83s.47-.68.75-1a2.3,2.3,0,0,1,1.82-.94,2.26,2.26,0,0,1,2.33,2.07c0,.21.14,1,.17,1.19Z" transform="translate(-340.04 -264.64)"/><path class="cls-3" d="M370.34,268.11h0c0-.22-.14-1-.17-1.19a2.26,2.26,0,0,0-2.24-2.07h0c.64.22,1.19,1.46,1.26,2.09,0,.3.07.61.12.91a31.78,31.78,0,0,0,.92,4A22.59,22.59,0,0,0,370.34,268.11Z" transform="translate(-340.04 -264.64)"/><path class="cls-4" d="M369.94,269.34l.45-.07c1,7.66,3.43,19.4,3.43,19.4l-.49.32S370.93,277.2,369.94,269.34Z" transform="translate(-340.04 -264.64)"/><path class="cls-5" d="M374.16,288.45Z" transform="translate(-340.04 -264.64)"/><path class="cls-6" d="M344.41,285.81c-.29.14-.43.64-.43.64a1.75,1.75,0,0,1,.65-.36,84.94,84.94,0,0,1,9.73-2.89l.36-.57A77.47,77.47,0,0,0,344.41,285.81Z" transform="translate(-340.04 -264.64)"/><path class="cls-7" d="M377.43,280.05l2.35-.1.31-3.51a80,80,0,0,0-8.09.89l.5,3.07S374.93,280.17,377.43,280.05Z" transform="translate(-340.04 -264.64)"/><path class="cls-8" d="M385,279.82s-.39-.55-1.68-.6c-3.88,0-7.54.18-11,.49l.09.51c3.41-.31,7-.49,10.87-.49A16.21,16.21,0,0,1,385,279.82Z" transform="translate(-340.04 -264.64)"/><path class="cls-5" d="M374.16,288.45Z" transform="translate(-340.04 -264.64)"/><path class="cls-9" d="M362.93,279.07c-1.83.43-3.73.89-4.61,1.14l-1.53,2.56c.53-.15,3.34-.68,6.08-1.14Z" transform="translate(-340.04 -264.64)"/><path class="cls-10" d="M357.22,282l-.34.58c2.94-.64,6.34-1.28,10.1-1.78l-.08-.51C363.3,280.81,360.06,281.42,357.22,282Z" transform="translate(-340.04 -264.64)"/><path class="cls-11" d="M342.61,287.64c-.51-.43-.76-.64-.85-.88a1.47,1.47,0,0,1-.05-.2,1.48,1.48,0,0,0-.16.54,1.22,1.22,0,0,0,0,.48h0a1.34,1.34,0,0,0,.14.38,1.65,1.65,0,0,0,.45.58l6.25,5.17.45-.84Z" transform="translate(-340.04 -264.64)"/><polygon class="cls-12" points="9.89 30.6 11.05 28.36 15.88 32.39 14.45 34.5 9.89 30.6"/><path class="cls-13" d="M350.46,294.21,350,295s2.74,2.23,6.39,5.4l.68-.5C353.5,296.8,350.46,294.21,350.46,294.21Z" transform="translate(-340.04 -264.64)"/><polygon class="cls-14" points="19.96 39.32 22.19 37.72 29.11 43.79 26.86 45.59 19.96 39.32"/><path class="cls-15" d="M372.94,315.43a85,85,0,0,0-6.27-6.62c-1.47-1.35-3.26-3.4-5.71-5.54l-.73.53c4.46,4,9.39,8.52,12.69,11.65Z" transform="translate(-340.04 -264.64)"/><path class="cls-16" d="M375.31,293.21l-4.89,3.35h0c.11.39,1.12,4.24,2.13,7.71l.3,1h0l5.3-1.81C376.64,298.4,375.38,293.61,375.31,293.21Z" transform="translate(-340.04 -264.64)"/><path class="cls-17" d="M369.13,308.76v0A54.49,54.49,0,0,0,374,314c1.71,1.29,2.46.69,2.61-.24.47-3.09-4.5-11.93-4.5-11.93.08.26,2.5,8.36,2.95,9.76h0a2.09,2.09,0,0,1,.1.59h0a1.18,1.18,0,0,1-.09.46h0a.67.67,0,0,1-.28.34h0a.64.64,0,0,1-.31.07h0a.9.9,0,0,1-.43-.12h0a1.74,1.74,0,0,1-.49-.34h0C372.93,312,371.14,310.53,369.13,308.76Z" transform="translate(-340.04 -264.64)"/><path class="cls-18" d="M381.32,313.63c-2.49-5.88-5.08-15.52-6.37-20.18l-.39.27c1,4.77,3.62,14.63,5.47,20a4,4,0,0,1,.21,1.55,6.07,6.07,0,0,1-.16,1,2.49,2.49,0,0,1-.28.74,3.59,3.59,0,0,1-1.1,1.31,3.11,3.11,0,0,1-1.63.56,3.72,3.72,0,0,0,1,.16h.13a3.24,3.24,0,0,0,2.1-.71,3.58,3.58,0,0,0,1-1.39,3,3,0,0,0,.23-.75,6.57,6.57,0,0,0,.09-1A3.93,3.93,0,0,0,381.32,313.63Z" transform="translate(-340.04 -264.64)"/><path class="cls-19" d="M346.5,309.84C348,309,382.89,284,385,282.62c1.7-1.17,1.92-2.17,1.62-2.57s-.84-.77-3-.82v0a3.47,3.47,0,0,1,1.48.57c1.24.78-.64,2.17-.64,2.17s-3.19,2.18-7.82,5.22c-3.71,2.43-8.37,5.39-12.83,8.47-8.13,5.59-16.41,11.81-17.87,12.59-1.23.65-1.77-.31-1.63-1C343.67,308.58,342.38,312.25,346.5,309.84Z" transform="translate(-340.04 -264.64)"/><path class="cls-20" d="M386,280.91c.25-1-1-1.09-1-1.09,1.24.78-.64,2.17-.64,2.17l-4.85,3.26S385.75,282,386,280.91Z" transform="translate(-340.04 -264.64)"/><path class="cls-21" d="M366.14,298c-1.93,1.28-3.65,2.48-5,3.47-7.21,5.37-13.41,10-16.62,12.43a2.74,2.74,0,0,1-3.17.56,2.35,2.35,0,0,1-1-1,2.56,2.56,0,0,0,1.32,2,2.77,2.77,0,0,0,3.18-.55c3-2.29,5.85-4.47,10.51-8L366.14,298Z" transform="translate(-340.04 -264.64)"/><path class="cls-22" d="M385.54,285.83v-.05c-3.35,2-11.6,7.06-16.51,10.61-4,2.88-9.31,7.07-12,9.2v.08l4.26-3.17C370.75,295.67,381.38,288.54,385.54,285.83Z" transform="translate(-340.04 -264.64)"/><path class="cls-23" d="M347.8,307.5c1.72-.93,4.5-3,8.12-5.64.91-.66,6.19-4.64,7.18-5.74-7.92,5.47-15.81,11.39-17.23,12.15l-.11.05C345.88,308.36,346.31,308.32,347.8,307.5Z" transform="translate(-340.04 -264.64)"/><path class="cls-24" d="M369.6,291.42c-2.61-11.53-3.5-17.73-3.79-19.8-.08-.59-.29-.79-.57-.83a1.07,1.07,0,0,1,1.36.44c.15.22,1,5,1.94,9.76s2.45,9.58,2.45,9.58Z" transform="translate(-340.04 -264.64)"/><path class="cls-25" d="M364.7,270.72a.63.63,0,0,0-.72.21c-.26.37-2,2.14-6.28,9.36l0,0c1.14-1.72,5-7.52,6.32-9C364,271.31,364.37,270.76,364.7,270.72Z" transform="translate(-340.04 -264.64)"/><path class="cls-26" d="M345,304.92c.57-1.38,2.95-7.08,5.27-11.38s4.37-7.74,5.21-9.15l0,0c-1.48,2.77-7.88,14.78-10.49,20.51Z" transform="translate(-340.04 -264.64)"/><path class="cls-27" d="M341.58,287.46h0a.49.49,0,0,1,0-.12h0a1.6,1.6,0,0,1,1-1.31h0c1.55-.68,3.52-1.51,4.34-1.88v-.06c-1.57.56-3.1,1.15-4.37,1.7h0a1.6,1.6,0,0,0-1,1.31h0a.57.57,0,0,0,0,.13h0a1.41,1.41,0,0,0,0,.35S341.58,287.5,341.58,287.46Z" transform="translate(-340.04 -264.64)"/><path class="cls-28" d="M342.07,307.69c.51-.93,8.07-14.89,10.74-19.6s10.08-17.2,11.57-19.71l0,0c-4,5.84-8.13,12-11.53,18-1.81,3.2-3.52,6.3-5,9.19-1.74,3.31-3.24,6.32-4.37,8.84-.54,1.22-1,2.33-1.35,3.31Z" transform="translate(-340.04 -264.64)"/><path class="cls-29" d="M347.78,295.58h0c.49-.9,4.49-8.34,5.88-10.62,1.51-2.68,4.15-6.78,4.62-7.52h0c-.52.94-3.93,7.07-5.26,9.33C351.85,288.79,348.25,294.79,347.78,295.58Z" transform="translate(-340.04 -264.64)"/><path class="cls-30" d="M365.24,270.79c.28,0,.49.24.57.83.27,2,1.09,7.62,3.38,18h0c-.31-1.85-2.82-16.24-3.11-18.13C366,270.57,365.24,270.79,365.24,270.79Z" transform="translate(-340.04 -264.64)"/><path class="cls-31" d="M386.88,276.48l1.88.07,2.67.18s2.47.06,3.07,1.84c.72,2.15-1.54,3.21-1.54,3.21S393.33,278.06,386.88,276.48Z" transform="translate(-340.04 -264.64)"/><path class="cls-32" d="M394.27,278.66a2,2,0,0,0-.62-.9,3.21,3.21,0,0,0-.92-.51,4.54,4.54,0,0,0-1.29-.26h0l-.33,0a4.21,4.21,0,0,1,.74.21,3.43,3.43,0,0,1,1.09.6,2.42,2.42,0,0,1,.75,1.08,2.67,2.67,0,0,1,.15.88c0,.42.13,1,.34.59a2,2,0,0,0,.23-.93A2.41,2.41,0,0,0,394.27,278.66Z" transform="translate(-340.04 -264.64)"/><path class="cls-33" d="M369.13,308.78h0a51,51,0,0,0,4.54,4.5c1.1.82,1.63.48,1.72,0a2.33,2.33,0,0,0-.27-1.23,1,1,0,0,1-.37.9h0a.6.6,0,0,1-.3.07h0a1.1,1.1,0,0,1-.44-.11h0a2.22,2.22,0,0,1-.48-.35h0C372.93,312,371.14,310.54,369.13,308.78Z" transform="translate(-340.04 -264.64)"/></svg>